<svg id="Layer_1" data-name="Layer 1" xmlns="http://www.w3.org/2000/svg" viewBox="0 0 1000 1000"><defs><style>.cls-1,.cls-2{fill:#234780;stroke:#234780;stroke-miterlimit:10;}.cls-1{stroke-width:9px;}.cls-2{stroke-width:7px;}</style></defs><title>Icons</title><path class="cls-1" d="M508.91,486.75a92.35,92.35,0,1,1,92.35-92.35A92.45,92.45,0,0,1,508.91,486.75Zm0-161.69a69.35,69.35,0,1,0,69.35,69.35A69.43,69.43,0,0,0,508.91,325.06Z"/><path class="cls-1" d="M576.39,378.49l171.13-72a11.5,11.5,0,0,0-8.92-21.2l-171.15,72A68.94,68.94,0,0,1,576.39,378.49Z"/><path class="cls-1" d="M744.68,416.39L578.21,392.66c0,0.58,0,1.16,0,1.74a69.08,69.08,0,0,1-3.27,21l166.45,23.72A11.5,11.5,0,1,0,744.68,416.39Z"/><path class="cls-1" d="M913.49,335c-0.61-4.55-4.94-31-25.3-58.1A142.91,142.91,0,0,0,839,235.81c-24.31-12.56-53.55-19.67-86.94-21.13-33.7-1.47-68.06,6.58-102.09,23.91-26.79,13.65-53.45,33.07-79.23,57.71a475.73,475.73,0,0,0-33,35.05,69.59,69.59,0,0,1,19.14,13c8.63-10,18.61-20.79,29.79-31.48,24.16-23.1,49-41.21,73.77-53.84,30.45-15.51,60.94-22.72,90.65-21.43,53.52,2.33,93.22,19.88,118,52.15C887.66,314,890.68,338,890.71,338.15c0,0.38.11,0.78,0.19,1.16,0.14,0.63,13.13,63.79-21.22,107.9-21.5,27.61-57.4,42.54-106.71,44.36C725,493,688.66,488.08,654.89,477A284.25,284.25,0,0,1,579.21,439q-5.89-4.17-11.19-8.34A69.88,69.88,0,0,1,552.88,448q5.76,4.54,12.16,9.13a307.18,307.18,0,0,0,82,41.54,328.53,328.53,0,0,0,103.28,16.15q6.72,0,13.5-.25c56.5-2.09,98.26-20,124.12-53.37C927.47,410.26,915,342.23,913.49,335Z"/><path class="cls-2" d="M271.45,306.49L441.53,378a69,69,0,0,1,9.09-21.13L280.37,285.29A11.5,11.5,0,0,0,271.45,306.49Z"/><path class="cls-2" d="M439.56,394.41c0-.53,0-1.05,0-1.58L274.29,416.39a11.5,11.5,0,1,0,3.24,22.77l165.35-23.56A69.07,69.07,0,0,1,439.56,394.41Z"/><path class="cls-2" d="M444.57,420.23a284.17,284.17,0,0,1-98.75,56.58C311.86,488,275.29,493,237.1,491.57c-49.3-1.82-85.2-16.75-106.71-44.36C96.05,403.1,109,339.94,109.17,339.33a11.74,11.74,0,0,0,.19-1.18c0-.23,2.75-23.31,20.9-47.44C155,257.86,194.92,240,249,237.66q3.39-.15,6.79-0.15c27.46,0,55.55,7.2,83.6,21.45,24.75,12.57,49.53,30.6,73.65,53.61A457.32,457.32,0,0,1,452,354.91a69.91,69.91,0,0,1,16.21-16.57,481.13,481.13,0,0,0-38.88-42c-25.78-24.65-52.43-44.07-79.23-57.71-34-17.34-68.39-25.38-102.09-23.91-76.28,3.32-116.1,35.66-136.08,62.2C91.53,303.95,87.2,330.43,86.59,335c-1.48,7.25-14,75.28,25.54,126.2,25.86,33.33,67.62,51.28,124.12,53.37q6.78,0.25,13.5.25A328.57,328.57,0,0,0,353,498.65a307.18,307.18,0,0,0,82-41.54c8-5.72,15.28-11.46,21.77-17A69.44,69.44,0,0,1,444.57,420.23Z"/><path class="cls-1" d="M570.6,432.62l-2.58-2q-1.48,2.41-3.16,4.68Z"/><path class="cls-1" d="M790.32,738.58l-120-257c-5.21-1.39-10.38-2.9-15.48-4.57q-7.31-2.39-14.45-5.17l117.3,251.3-57.78-21A11.5,11.5,0,0,0,685.21,709l-21,57.79-142-304.32a68.71,68.71,0,0,1-25.28.22l158.24,339a11.5,11.5,0,0,0,10.42,6.64H666a11.5,11.5,0,0,0,10.3-7.56l26.55-73.09L776,754.25A11.5,11.5,0,0,0,790.32,738.58Z"/><path class="cls-2" d="M444.57,420.23c-3.72,3.27-7.73,6.63-12,10l26.69,12.46A69.53,69.53,0,0,1,444.57,420.23Z"/><path class="cls-2" d="M508.91,463.75a69,69,0,0,1-21.81-3.53L344,766.79,323,709a11.5,11.5,0,0,0-14.74-6.88l-57.78,21L369.72,467.7q-11.72,5.08-23.9,9.11-3.34,1.1-6.72,2.12L217.89,738.58a11.5,11.5,0,0,0,14.35,15.67l73.07-26.59,26.55,73.09a11.5,11.5,0,0,0,10.3,7.56h0.51a11.5,11.5,0,0,0,10.42-6.64l157.76-338C510.21,463.72,509.56,463.75,508.91,463.75Z"/></svg>