<svg id="Layer_1" data-name="Layer 1" xmlns="http://www.w3.org/2000/svg" viewBox="0 0 1000 1000"><defs><style>.cls-1{fill:#234780;stroke:#234780;stroke-miterlimit:10;stroke-width:9px;}</style></defs><title>Icons</title><path class="cls-1" d="M885.21,769H115.77A30.73,30.73,0,0,1,85,738.39v-113A30.67,30.67,0,0,1,104.72,597L470,457.28l-0.21-41c-30.8-6.61-49.22-23.87-59.47-37.79-19.45-26.42-21.55-56-21.55-67.54,0-23.26,8.95-48.58,23.94-67.74,14-17.95,39.86-39.34,83.14-39.34,39.65,0,64.65,17.86,78.64,32.83,14.62,15.65,20.33,31.32,21.32,34.3a10,10,0,0,1-6.31,12.65l-36.68,12.27a10,10,0,0,1-14.52-5.2h0a43.88,43.88,0,0,0-9.06-13.37c-8.3-8.42-19.53-12.69-33.39-12.69-15.29,0-26.82,5.23-35.25,16-8.7,11.12-11,24.26-11,30.27,0,3.06.47,18.93,9.71,31.49,7.94,10.79,19.89,15.81,37.59,15.81a30.42,30.42,0,0,1,29.22,22,24,24,0,0,1,4.44,14.27l0.34,62.7L896.27,597h0A30.67,30.67,0,0,1,916,625.39v113A30.74,30.74,0,0,1,885.21,769ZM495.8,223.83c-35.22,0-56.08,17.22-67.38,31.66-12.33,15.76-19.69,36.47-19.69,55.41,0,9.53,1.72,34,17.66,55.68,8.89,12.07,25.59,27.31,54.7,31.36a10,10,0,0,1,8.62,9.85L490,464.1a10,10,0,0,1-6.43,9.39L111.87,615.68a10.56,10.56,0,0,0-6.87,9.71v113A11,11,0,0,0,115.77,749H885.21A11,11,0,0,0,896,738.39v-113a10.56,10.56,0,0,0-6.88-9.71L517.31,473.41a10,10,0,0,1-6.43-9.29l-0.38-69.54c0-2-.56-2.56-0.76-2.77a10,10,0,0,1-2.68-5.15,10.4,10.4,0,0,0-10.22-8.46c-23.93,0-42-8.06-53.7-24-12.63-17.15-13.61-37.52-13.61-43.35,0-11.16,4-28.21,15.27-42.59,12.12-15.49,29.76-23.68,51-23.68,19.4,0,35.43,6.27,47.63,18.64a65.46,65.46,0,0,1,9.07,11.61l20.13-6.73a86.58,86.58,0,0,0-12.81-17.83C548.53,238.24,528.26,223.83,495.8,223.83ZM865,728H136a10,10,0,0,1-10-10V639.43a10,10,0,0,1,6.43-9.34L486,494.94a10,10,0,0,1,10.21,1.87,7.47,7.47,0,0,0,4.26,2.19h0.1a8.63,8.63,0,0,0,5.2-2.2,10,10,0,0,1,9.89-1.59L868.57,630.09a10,10,0,0,1,6.43,9.34V718A10,10,0,0,1,865,728ZM146,708H855V646.31L513.3,515.71A27.25,27.25,0,0,1,500.59,519h-0.1a24.54,24.54,0,0,1-12.34-3.46L146,646.31V708Z"/></svg>