<svg id="Layer_1" data-name="Layer 1" xmlns="http://www.w3.org/2000/svg" viewBox="0 0 1000 1000"><defs><style>.cls-1{fill:#234780;stroke:#234780;stroke-miterlimit:10;stroke-width:9px;}</style></defs><title>4-shoes</title><path class="cls-1" d="M466.93,536.92c-3.58,67.08-7.28,134.16-10.69,201.26C455,763,454.11,787.57,443.51,811c-27.59,61.1-92.52,99.21-159.18,92.26C215.91,896.18,159.8,848.4,145.65,783c-4-18.41-3-37.91-4.08-56.92q-5.67-102.42-11.13-204.86c-3.34-63.71-7.67-127.4-9.26-191.15-1.6-64,15.94-122.74,56.68-173.26,23.73-29.42,53.41-50.61,90.79-58.54,52.73-11.18,98.24,4.78,135.86,41.92,49.58,48.94,70.92,110.5,71.88,178.82,0.62,44.13-2.86,88.33-4.8,132.49-1.25,28.49-3.06,56.95-4.62,85.42h0Zm-27.33-1.24h0.07c0.14-2.17.31-4.34,0.43-6.51,2.89-53.33,5.88-106.66,8.62-160,1.95-38,2.27-75.92-8.49-112.93-14.18-48.74-38.08-90.84-83-117.88a109.66,109.66,0,0,0-65.88-15.72c-36.1,2.65-64.71,19.95-87.91,46.56-41.2,47.27-56.79,103.94-55.22,165.11,1.62,62.79,6.3,125.51,9.69,188.26,4.23,78.43,8.66,156.85,12.64,235.3,1.06,20.85,6.79,40,18.23,57.24,30.34,45.71,73,65.51,127.65,60.11,51.38-5.08,101.59-49.68,109.07-100.77,4.36-29.78,4.4-60.2,6.1-90.34C434.37,634.63,436.94,585.15,439.6,535.68Z"/><path class="cls-1" d="M187,578.74c-2.49-54.33-6.09-108.65-7.08-163C179.29,379,196.51,349,224.56,326c36.24-29.67,77.27-36.07,120.25-17.67,42.41,18.17,66.22,52.49,73.08,97.52,2.36,15.49-.44,31.81-1.22,47.74-3.19,64.7-6.36,129.41-9.86,194.1-2,37.15-2.91,74.47-7.42,111.34-6.18,50.5-51.54,88.5-101.37,88.12-56.67-.43-101.61-44.48-103.93-101.76q-3.37-83.33-6.9-166.65H187Zm27.47,1.14h-0.18c2.65,56.47,4.93,113,8.07,169.41,2.16,38.78,33.83,68.51,73.42,70.3,36.49,1.65,70.11-26,76.26-63a244.61,244.61,0,0,0,3-27.32C380.45,627,386,524.67,390.65,422.34c1.78-39.42-17.68-68.55-51.58-86.38-32.52-17.11-65.43-13.54-94.56,9.1-23.74,18.45-38.4,42.93-37.26,74.07C209.22,472.73,212,526.3,214.51,579.88Z"/><path class="cls-1" d="M323.33,271.3c-12.26,7.93-24.86,8.94-38.25,4-1.94-.72-5.39.54-7.24,2-23.59,18.84-55.53,14.82-72.69-9.35-20-28.15-1.87-69.32,32.43-73.65,18-2.28,30.33,1.89,44.75,15.13,18.62-5,20.06-5,37.07.18,25.06-23.56,53.31-25.79,73.78-5.81,17.9,17.47,19.19,46.6,3.19,65.1C379.74,288.09,349,293.45,323.33,271.3Zm14-33.8c1.11,13,11.32,21.83,24.05,20.8,11.11-.89,19.79-10.93,18.81-21.74-1.06-11.65-11.2-19.84-23.29-18.81C346.72,218.62,336.61,228.82,337.35,237.5Zm-91.88,24.07c7.21,0,13.78-2.45,17.1-8.78,1.89-3.61.07-9,1.4-13.12,3-9.32-2.63-13.14-9.27-16.55-7.64-3.93-17.69-2.34-24.15,3.57a20.14,20.14,0,0,0-4.88,21.88C228.85,256.57,236.46,261.57,245.47,261.57Zm55.2-10.42c5.16-.68,9.22-2.8,9.35-8.76,0.12-5.75-3.15-8.82-8.76-9.22-5.43-.39-10.33,3.85-10.06,8.88C291.5,247.76,295.27,250.31,300.67,251.15Z"/><path class="cls-1" d="M537.78,536.92c-1.56-28.47-3.36-56.93-4.62-85.42-1.94-44.16-5.42-88.35-4.8-132.49,1-68.32,22.3-129.87,71.88-178.82,37.62-37.14,83.13-53.09,135.86-41.92,37.38,7.92,67.07,29.12,90.79,58.54,40.73,50.51,58.27,109.28,56.68,173.26-1.59,63.75-5.92,127.44-9.26,191.15q-5.37,102.44-11.13,204.86c-1.05,19-.1,38.51-4.08,56.92C845,848.4,788.84,896.18,720.41,903.31c-66.66,6.94-131.58-31.16-159.18-92.26-10.6-23.47-11.47-48-12.73-72.87C545.1,671.09,541.4,604,537.82,536.92h0ZM573.17,684.1c1.7,30.15,1.75,60.57,6.1,90.34,7.48,51.09,57.69,95.69,109.07,100.77C743,880.62,785.65,860.82,816,815.1c11.43-17.23,17.17-36.39,18.23-57.24,4-78.45,8.41-156.87,12.64-235.3,3.38-62.75,8.07-125.46,9.69-188.26,1.58-61.17-14-117.84-55.22-165.11-23.19-26.62-51.81-43.92-87.91-46.56a109.66,109.66,0,0,0-65.88,15.72c-44.93,27-68.83,69.14-83,117.88-10.76,37-10.44,74.95-8.49,112.93,2.74,53.34,5.73,106.67,8.62,160,0.12,2.17.28,4.34,0.43,6.51h0.07C567.81,585.15,570.38,634.63,573.17,684.1Z"/><path class="cls-1" d="M817.56,578.73q-3.45,83.33-6.9,166.65c-2.32,57.28-47.26,101.33-103.93,101.76-49.83.37-95.19-37.62-101.37-88.12-4.51-36.86-5.41-74.19-7.42-111.34-3.5-64.69-6.66-129.39-9.86-194.1-0.79-15.93-3.58-32.24-1.22-47.74,6.85-45,30.67-79.35,73.08-97.52,43-18.41,84-12,120.25,17.67,28.06,23,45.27,53,44.6,89.73-1,54.36-4.59,108.67-7.08,163h-0.15Zm-20.07-159.6c1.14-31.15-13.52-55.62-37.26-74.07-29.13-22.64-62-26.21-94.56-9.1-33.9,17.83-53.36,47-51.58,86.38,4.63,102.33,10.2,204.62,15.53,306.92a244.61,244.61,0,0,0,3,27.32c6.16,37,39.77,64.68,76.26,63,39.59-1.8,71.26-31.53,73.42-70.3,3.14-56.45,5.42-112.94,8.07-169.41h-0.18C792.7,526.3,795.53,472.73,797.49,419.13Z"/><path class="cls-1" d="M608.39,268.88c-16-18.5-14.71-47.63,3.19-65.1,20.47-20,48.72-17.75,73.78,5.81,17-5.2,18.44-5.2,37.07-.18,14.42-13.24,26.74-17.41,44.75-15.13,34.29,4.34,52.42,45.51,32.43,73.65-17.16,24.16-49.11,28.18-72.69,9.35-1.85-1.48-5.3-2.73-7.24-2-13.39,5-26,4-38.25-4C655.77,293.45,625,288.09,608.39,268.88Zm39.43-51.13c-12.09-1-22.23,7.16-23.29,18.81-1,10.81,7.71,20.85,18.81,21.74,12.73,1,22.95-7.81,24.05-20.8C668.14,228.82,658,218.62,647.82,217.75Zm131.27,30.81a20.14,20.14,0,0,0-4.88-21.88c-6.47-5.91-16.51-7.5-24.15-3.57-6.64,3.42-12.31,7.23-9.27,16.55,1.34,4.11-.49,9.5,1.4,13.12,3.32,6.34,9.88,8.76,17.1,8.78C768.29,261.57,775.9,256.57,779.09,248.56Zm-65.53-6.51c0.27-5-4.63-9.27-10.06-8.88-5.61.4-8.88,3.47-8.76,9.22,0.13,6,4.19,8.07,9.35,8.76C709.48,250.31,713.25,247.76,713.55,242.05Z"/></svg>