<svg id="Layer_1" data-name="Layer 1" xmlns="http://www.w3.org/2000/svg" viewBox="0 0 1000 1000"><defs><style>.cls-1,.cls-2,.cls-3{fill:#234780;}.cls-1,.cls-3{stroke:#234780;stroke-miterlimit:10;}.cls-1{stroke-width:9px;}.cls-3{stroke-width:7px;}</style></defs><title>Icons</title><path class="cls-1" d="M200.18,715.58c-7.47-.54-12-3.16-14.54-8.59-2.61-5.62-2.18-11.4,2.08-15.79q24.15-24.84,48.88-49.1c5.9-5.78,15.13-4.95,20.71,1a14.67,14.67,0,0,1-.48,20.79c-15.72,15.88-31.66,31.55-47.51,47.3a4.77,4.77,0,0,1-1.26,1.12C205,713.61,202,714.85,200.18,715.58Z"/><path class="cls-1" d="M199.23,240.77c3.25,1.59,7.17,2.48,9.63,4.88q24.38,23.79,48.18,48.18a14.76,14.76,0,0,1-20.91,20.83q-24.34-23.84-48.25-48.11c-4.59-4.64-5.06-10.49-2.5-16.19C187.86,244.85,192.34,241.63,199.23,240.77Z"/><path class="cls-2" d="M658.91,257.07c-1.77,3.34-2.88,7.33-5.41,9.93-15.6,16-31.45,31.73-47.38,47.39A14.77,14.77,0,0,1,585,293.71c15.77-16.09,31.75-32,47.69-47.88,4.65-4.65,10.3-5.16,16.14-3S657.8,250.17,658.91,257.07Z"/><path class="cls-3" d="M435.72,196.56c0,9.77.09,19.55,0,29.32-0.12,9.5-6.1,15.88-14.66,15.91s-14.69-6.37-14.75-15.81q-0.21-28.75-.08-57.51c0-9.45,6.1-15.71,14.73-15.73s14.7,6.23,14.84,15.63,0,18.79,0,28.19h-0.08Z"/><path class="cls-1" d="M139.59,463.9c9.58,0,19.17-.1,28.75,0,9.41,0.13,15.83,6.26,15.78,14.79s-6.44,14.56-15.94,14.63q-28.47.2-56.94,0.09c-9.86,0-16.21-6-16.16-14.88s6.37-14.54,16.33-14.75h28.19v0.1Z"/><path class="cls-2" d="M702.32,463.9c9.39,0,18.79-.08,28.18,0,9.6,0.11,16.43,6.5,16.24,15s-6.81,14.39-16.22,14.44c-19.54.09-39.08,0.12-58.62,0-6.8,0-11.42-3.77-13.43-10s-0.22-13,5.12-16.53a17.87,17.87,0,0,1,8.86-2.81c9.95-.34,19.91-0.13,29.87-0.13v0Z"/><path class="cls-1" d="M379.8,640.23c1.95-.23,3.9-0.47,5.85-0.66,1.76-.17,3.53-0.28,5.59-0.43,0.61-2.52,1.19-5,1.79-7.53-72.52-13.24-127.71-77.08-127.56-153.4,0.17-85.45,70.1-155.14,155.64-155.08,85.73,0.06,155.53,70.11,155.36,155.92a154.45,154.45,0,0,1-4.57,37.05,147.4,147.4,0,0,1,28.34,8.42A185.32,185.32,0,0,0,606,478.74c0-102.23-82.72-185.07-184.89-185.09-102,0-184.92,82.54-185.09,184.33A185.14,185.14,0,0,0,348.13,648.77,106,106,0,0,1,379.8,640.23Z"/><path class="cls-1" d="M602.92,850.25q-106.22,0-212.45,0c-39.62-.06-71.43-16.18-95.06-47.88-31.15-41.77-29.27-100.32,4.33-141.42,18.23-22.3,41.79-35.7,70.1-40.62,3.63-.63,4.84-2.15,6-5.42,23.28-67.72,70.13-109.07,140.73-120.58,52.2-8.51,99.23,6.12,139.64,40.64,3,2.54,5.45,3.43,9.41,2.6,57.66-12,113.55,11.35,145.26,60.94a130.62,130.62,0,0,1,20.7,69.26c0.07,3.75,1.19,5.11,4.87,6,36.76,8.47,64.81,40.16,68.61,77.2,4,39-16.64,75.1-51.92,91.35a86.55,86.55,0,0,1-37.2,8.09C744.91,850.14,673.91,850.25,602.92,850.25ZM809.67,690.72c0-11.68,1.41-23.79-.23-35.47-10-71.37-80.8-115.89-149.59-94.44-4.27,1.33-6.66.43-9.63-2.54-29.85-29.77-66.1-44.68-108.11-45.08-67.81-.64-129.49,46.21-147.31,111.43-1.3,4.77-2.36,9.61-3.55,14.51-2.07.16-3.83,0.26-5.59,0.43-2,.19-3.9.43-5.85,0.66-35.89,4.21-62.2,22.66-76.88,55.37-15,33.32-11.35,65.95,10.52,95.49,19.78,26.72,47.21,38.25,80.21,38.22q210.8-.22,421.6,0a68.57,68.57,0,0,0,30.87-7.11C870,810.55,886,783.89,884.42,758c-1.83-29.1-19.76-53.47-46.5-61.83C829,693.35,819.52,692.54,809.67,690.72Z"/><path class="cls-1" d="M816.19,855.35h-0.3c-52.68-.16-106.24-0.14-158-0.12q-27.46,0-54.92,0-31.48,0-63,0c-49,0-99.65,0-149.48,0-41.1-.06-74.43-16.85-99.06-49.89a118.23,118.23,0,0,1-23.11-74.11,122.73,122.73,0,0,1,27.57-73.46c18.77-23,43.37-37.21,73.12-42.38,1.45-.25,1.45-0.25,2.09-2.12,24.24-70.51,72.91-112.2,144.65-123.89,52.83-8.61,101.17,5.45,143.69,41.77,2,1.71,2.91,2,5.14,1.51,59.92-12.51,117.59,11.67,150.5,63.14a135.84,135.84,0,0,1,21.49,71.86,8.66,8.66,0,0,0,.06.92,9,9,0,0,0,.94.26c38.65,8.9,68.45,42.45,72.46,81.56a94.58,94.58,0,0,1-54.8,96.41A91.35,91.35,0,0,1,816.19,855.35ZM711.43,845.22c34.71,0,69.78,0,104.48.13h0.27A81.56,81.56,0,0,0,851,837.72c33.58-15.47,52.83-49.34,49-86.3-3.58-34.93-30.21-64.88-64.76-72.84-5.94-1.37-8.64-4.68-8.75-10.75a126,126,0,0,0-19.92-66.65c-30.62-47.88-84.27-70.4-140-58.74-5.27,1.1-9.36,0-13.68-3.7-40.18-34.33-85.8-47.62-135.58-39.51-67.83,11.05-113.86,50.51-136.8,117.27-1.33,3.87-3.44,7.61-9.83,8.72C343.39,630,320.81,643,303.61,664.08a112.67,112.67,0,0,0-25.32,67.44,108.18,108.18,0,0,0,21.13,67.82c22.65,30.38,53.29,45.81,91.06,45.87,49.82,0.08,100.47.06,149.46,0q31.49,0,63,0H711.43Zm103.9-10.87h-0.08c-157.38-.15-295.29-0.16-421.59,0h-0.15c-36,0-64.32-13.54-84.09-40.24-22.88-30.91-26.7-65.67-11.06-100.52,15.34-34.19,42.55-53.8,80.86-58.29l1-.12c1.64-.19,3.29-0.39,4.93-0.55l2.06-.18,0.26-1.08c0.77-3.29,1.58-6.69,2.49-10,18.29-66.9,81.56-115.12,150.78-115.12h1.41c43.5,0.41,81,16.07,111.59,46.54,1.86,1.85,2.38,2,4.61,1.3a120.54,120.54,0,0,1,156,98.52c1.18,8.45.86,17,.55,25.23-0.09,2.31-.17,4.54-0.22,6.74,1.68,0.27,3.35.53,5,.78a134.61,134.61,0,0,1,19.7,4.05c28.4,8.88,48,34.9,50,66.29,1.75,28-15.14,56.4-41.08,69.08A73.47,73.47,0,0,1,815.34,834.35ZM580.26,824.23c73.65,0,151.59,0,235,.12h0.06a63.69,63.69,0,0,0,28.61-6.6c22-10.78,37-35.8,35.49-59.47-1.71-27.22-18.59-49.74-43-57.37a125.11,125.11,0,0,0-18.23-3.71c-3.06-.47-6.23-1-9.44-1.55l-4.09-.76v-4.16c0-3.77.14-7.6,0.28-11.31,0.29-7.81.6-15.9-.46-23.46a110.55,110.55,0,0,0-143.15-90.36c-5.8,1.81-10.18.68-14.65-3.77-28.63-28.56-63.83-43.23-104.62-43.62C476.8,517.6,416.86,562.9,399.62,626c-0.87,3.17-1.61,6.33-2.4,9.68-0.37,1.56-.74,3.12-1.12,4.69l-0.86,3.53-5.51.41c-1.26.09-2.43,0.17-3.6,0.29-1.58.15-3.15,0.34-4.72,0.52l-1,.12c-34.57,4.05-59.1,21.7-72.9,52.46-14.27,31.81-10.92,62.25,10,90.47,18,24.35,42.9,36.19,76,36.19h0.14C453,824.26,515,824.23,580.26,824.23Z"/></svg>