<svg id="Layer_1" data-name="Layer 1" xmlns="http://www.w3.org/2000/svg" viewBox="0 0 549.06 549.26"><defs><style>.cls-1{fill:#d25950;}</style></defs><title>icons</title><path class="cls-1" d="M273.66,549.08q-129.5,0-259,0c-6.36,0-11.56-2-14.3-8a19.16,19.16,0,0,1-1.52-7.7q-0.13-75-.06-150,0-99.87,0-199.74c0-6.07,2-11,7.53-13.89,4.26-2.21,8.74-4,13.12-6,8.26-3.71,16.5-7.49,24.82-11.06,1.91-.82,1.76-2.11,1.76-3.6q0-66.62,0-133.25a22.6,22.6,0,0,1,.54-5.69c1.68-6.38,7-10.21,14-10.22q29.12,0,58.25,0,182.5,0,365-.1c10.09,0,16.16,6.77,16.11,16.27-0.2,44.16-.07,88.33-0.14,132.5a3.55,3.55,0,0,0,2.55,3.82q18,7.91,36,16c5.64,2.54,8.22,7,8.61,13.2,2.31,37.11.77,74.24,0.93,111.36,0.33,80.16.14,160.33,0.3,240.49,0,10-7.13,15.7-15.71,15.68Q403,549,273.66,549.08ZM61.51,15.57v3.83q0,139.36,0,278.72a13.83,13.83,0,0,1,0,1.75c-0.19,1.5.53,2.15,1.87,2.75,15.94,7.1,31.84,14.29,47.77,21.44l115.55,51.86c15,6.74,30,13.49,45.07,20.15a5.5,5.5,0,0,0,3.89.42q52.89-23.41,105.69-47,50.21-22.39,100.43-44.76a3.56,3.56,0,0,0,2.5-3.86q-0.08-141.11,0-282.22V15.57H61.51ZM532.29,299.19c-1.11.45-1.88,0.74-2.63,1.08q-17.06,7.64-34.12,15.29-54.64,24.36-109.3,48.69-52.82,23.55-105.62,47.14a14.82,14.82,0,0,1-12.77,0q-46.84-21-93.72-42L29.26,304.3c-4.29-1.92-8.59-3.82-13.07-5.81V533.34h516.1V299.19ZM499.91,168.3v57.07h31.28V182.24Zm0,128.2,32.35-14.29v-41H499.9V296.5ZM45.81,225.4V169c-1.08.44-1.92,0.76-2.74,1.13-8.87,4-17.7,8-26.62,11.91a3,3,0,0,0-2.16,3.31c0.07,12.49,0,25,0,37.48,0,0.81.07,1.62,0.12,2.56H45.81ZM14.45,280.91l31.39,13.7V241.32H14.45v39.59Z"/><path class="cls-1" d="M272.87,190.66H114.67c-4.71,0-7.72-2.18-8.47-6.06a7.74,7.74,0,0,1,6.69-9.37,17.56,17.56,0,0,1,2.74-.12q157.2,0,314.4,0c3.52,0,6.65.65,8.6,3.93a7.65,7.65,0,0,1-6.31,11.6c-2.16.07-4.33,0-6.5,0H272.87Z"/><path class="cls-1" d="M273.08,250.28h-157a30.32,30.32,0,0,1-3.25-.09,7.61,7.61,0,0,1-6.86-7.36,7.52,7.52,0,0,1,6.08-7.74,15.9,15.9,0,0,1,3.22-.3l315.25,0c3.16,0,6,.59,7.83,3.44a7.16,7.16,0,0,1,.64,7.56c-1.36,2.7-3.46,4.43-6.67,4.42-1.33,0-2.66.09-4,.09H273.08Z"/><path class="cls-1" d="M273.29,294.4H428q2.24,0,4.49.1a7.73,7.73,0,0,1,7.25,7,7.88,7.88,0,0,1-6,8.14,16.93,16.93,0,0,1-3.48.27h-315c-6.46,0-10.26-4-9.11-9.49a7.39,7.39,0,0,1,6.34-5.88,25.75,25.75,0,0,1,3.24-.13H273.29Z"/><path class="cls-1" d="M172.72,111.75q-29,0-58,0c-3.56,0-6.36-1.1-8-4.43a7.62,7.62,0,0,1,4.89-10.71,14.06,14.06,0,0,1,3.46-.37q57.61,0,115.21,0c5.69,0,9.09,3.09,9,8.07a7.63,7.63,0,0,1-6.84,7.34c-1,.09-2,0.08-3,0.08H172.72Z"/></svg>