<svg id="Layer_1" data-name="Layer 1" xmlns="http://www.w3.org/2000/svg" viewBox="0 0 549.1 549.01"><defs><style>.cls-1{fill:#fffae2;}</style></defs><title>aboutIcons</title><path class="cls-1" d="M104.12,103.88c0-1.39,0-2.38,0-3.36q0-43.12.06-86.24c0-8.19,6.29-14.15,14.56-14.15H430c9.65,0,15.57,5.85,15.57,15.55q0,40.87,0,81.75c0,2.06,0,4.12,0,6.45H449q42.25,0,84.5,0c8,0,13.78,4.32,15.4,11.54a18.23,18.23,0,0,1,.32,4q0,207.12,0,414.23c0,9.35-6.18,15.51-15.49,15.51H15.8C6.69,549.14.4,543,.21,533.9c-0.06-2.83,0-5.67,0-8.5q0-202.49,0-405c0-6.31,1.93-11.64,7.73-14.57A19.87,19.87,0,0,1,16.52,104c28-.13,56-0.08,84-0.08h3.61Zm231.1,216.88c0,7.24,0,14.15,0,21,0,9.36-6,15.32-15.27,15.32q-45.25,0-90.5,0c-9,0-15.07-6-15.13-15,0-6.17,0-12.33,0-18.5,0-.88-0.08-1.76-0.14-2.85H211c-23.42,0-46.83-.05-70.25,0-5.92,0-10.15-2.46-13.26-7.36-4.23-6.68-8.57-13.28-12.88-19.91L23.14,152.64c-2.29-3.52-4.6-7-7.21-11V533.49H533.54V142.38c-0.66,1-1.08,1.58-1.47,2.19Q478.3,229,424.56,313.42c-3.2,5-7.47,7.42-13.47,7.39-24.17-.1-48.33,0-72.5,0h-3.36ZM22.47,123c0.91,1.46,1.55,2.52,2.22,3.56Q82,214.9,139.35,303.26a4,4,0,0,0,3.81,2.05q34.12-.1,68.25,0h2.9c0-1.21,0-2.11,0-3,0-6.25-.07-12.5,0-18.75,0.12-8.35,6.12-14.43,14.37-14.45q46.12-.07,92.24,0a13.73,13.73,0,0,1,13.75,10.56,18.54,18.54,0,0,1,.5,4.68c0.05,6.89,0,13.79,0,20.79,0.9,0.07,1.54.16,2.19,0.16q36,0,72,0a3.31,3.31,0,0,0,3.14-1.86Q424.2,285,435.94,266.57l84.06-132c2.39-3.76,4.76-7.53,7.33-11.58H22.47Zm407.38-19.28V15.81h-310v87.92h310Zm-110.26,181H230v56.75h89.6V284.72Z"/></svg>