<svg id="Layer_1" data-name="Layer 1" xmlns="http://www.w3.org/2000/svg" viewBox="0 0 549.1 549.01"><defs><style>.cls-1{fill:#234780;}</style></defs><title>icons-darkblue-</title><path class="cls-1" d="M104,103.77c0-1.39,0-2.38,0-3.36q0-43.12.06-86.24C104.07,6,110.35,0,118.61,0H429.85c9.65,0,15.57,5.85,15.57,15.55q0,40.87,0,81.75c0,2.06,0,4.12,0,6.45h3.49q42.25,0,84.5,0c8,0,13.78,4.32,15.4,11.54a18.23,18.23,0,0,1,.32,4q0,207.12,0,414.23c0,9.35-6.18,15.51-15.49,15.51h-518C6.56,549,.27,542.9.08,533.79c-0.06-2.83,0-5.67,0-8.5q0-202.49,0-405C0,114,2,108.67,7.77,105.74a19.87,19.87,0,0,1,8.62-1.88c28-.13,56-0.08,84-0.08H104Zm231.1,216.88c0,7.24,0,14.15,0,21,0,9.36-6,15.32-15.27,15.32q-45.25,0-90.5,0c-9,0-15.07-6-15.13-15,0-6.17,0-12.33,0-18.5,0-.88-0.08-1.76-0.14-2.85h-3.2c-23.42,0-46.83-.05-70.25,0-5.92,0-10.15-2.46-13.26-7.36-4.23-6.68-8.57-13.28-12.88-19.91L23,152.53c-2.29-3.52-4.6-7-7.21-11V533.38H533.41V142.27c-0.66,1-1.08,1.58-1.47,2.19q-53.77,84.41-107.51,168.84c-3.2,5-7.47,7.42-13.47,7.39-24.17-.1-48.33,0-72.5,0h-3.36ZM22.34,122.89c0.91,1.46,1.55,2.52,2.22,3.56Q81.9,214.79,139.22,303.15A4,4,0,0,0,143,305.2q34.12-.1,68.25,0h2.9c0-1.21,0-2.11,0-3,0-6.25-.07-12.5,0-18.75,0.12-8.35,6.12-14.43,14.37-14.45q46.12-.07,92.24,0a13.73,13.73,0,0,1,13.75,10.56,18.54,18.54,0,0,1,.5,4.68c0.05,6.89,0,13.79,0,20.79,0.9,0.07,1.54.16,2.19,0.16q36,0,72,0a3.31,3.31,0,0,0,3.14-1.86q11.65-18.46,23.39-36.87l84.06-132c2.39-3.76,4.76-7.53,7.33-11.58H22.34Zm407.38-19.28V15.7h-310v87.92h310Zm-110.26,181h-89.6v56.75h89.6V284.61Z"/></svg>