<svg id="Layer_1" data-name="Layer 1" xmlns="http://www.w3.org/2000/svg" viewBox="0 0 549.26 545.83"><defs><style>.cls-1{fill:#234780;}</style></defs><title>icons-darkblue-</title><path class="cls-1" d="M392.89,311.7a37.24,37.24,0,0,0,.64-4.25c0-34.1.81-68.22-.26-102.29-1.29-41-22.16-70-59-87.09-16.28-7.58-33.5-11.12-52.81-2.37,22.85,2.69,42,10.14,58.18,24.26s27.78,31.43,31.86,52.47c9.67,49.82-9.29,87.09-53.4,113.43,25.07,10,49.93,3,74.76,5.84m-236.27-.5c17.35,0,34.66.41,51.93-.19,7.21-.26,14.34-2.66,21.51-4.08-41.29-26.45-62-62.19-53-109.74,9.27-48.81,42.36-74.8,91-82.64-6.88-1.86-13.81-4.07-20.69-3.94-43.94.78-88.09,41.27-90.47,85.22-2,37.55-.94,75.27-1.2,112.91a12.1,12.1,0,0,0,.89,2.47M275,133.75c-44.25-.14-80.58,35.86-82,78.68-1.43,42.35,32.28,84.34,81.49,84.78,44.63,0.39,81.8-36.61,82.09-81.18A81.77,81.77,0,0,0,275,133.75m0.18,397.61a256.21,256.21,0,0,0,133.4-37.5c3.65-2.21,6.14-4.32,6.23-9.32,0.81-44.63-11.45-84.75-40.08-119.52-42.75-51.93-115-64.31-169.28-27-51.56,35.41-71.86,86.93-70.17,148.11,0.08,2.66,3.23,6.1,5.85,7.7,40.9,24.95,85.41,37.29,134,37.55M184.6,330.48c-1-.71-1.33-1.23-1.71-1.24q-13-.14-25.94-0.19C142.64,329,138,324.52,138,310.54c0-34.1-.12-68.21,0-102.3,0.16-37.85,15.46-68.77,45.41-91.42,26.3-19.9,55.46-30.89,89.12-19.63a10.85,10.85,0,0,0,6.69-.12c24.94-9.21,48.36-3.31,70.29,8.6,40.24,21.86,60.86,56.6,61.93,102.24,0.78,33.31.15,66.67,0.15,100,0,17.18-3.94,21.13-21.1,21.14H363.21c46.82,39.35,67.5,88.6,69.57,146.82,73.14-53.81,121-162.1,88.47-273.49C487.28,86,379.22,10.48,256,18.44,138.92,26,41,113.84,21.16,232.86,13.47,279,18.34,324.08,35.34,367.71c16.94,43.45,43.9,79.43,81.28,109.15,0.85-29.27,6.26-56,17.82-81.3a180.24,180.24,0,0,1,50.15-65.08M0,273.69C1.59,118.11,125.3-3.21,282.15.06c151.3,3.15,268.52,128.38,267.1,276.3C547.75,430.47,423.53,552,268,549.2,118.22,546.5-.43,422.57,0,273.69"/></svg>