<svg id="Layer_1" data-name="Layer 1" xmlns="http://www.w3.org/2000/svg" viewBox="0 0 534.18 534.18"><defs><style>.cls-1{fill:#234780;}</style></defs><title>icons-darkblue-</title><path class="cls-1" d="M74.49,272.29H71.23c-18.92,0-37.83,0-56.75,0-11.14,0-17.89-11.36-12.39-20.74a19.61,19.61,0,0,1,3.31-4q30.49-29.59,61-59.12l80.43-77.9L209.2,50.16q23.79-23,47.58-46.07c6.67-6.45,14.23-6.39,20.92.09L346.64,71l62.84,60.85,79.18,76.68q20.56,19.91,41.11,39.82c6.65,6.48,6,16.83-1.68,21.53a17.7,17.7,0,0,1-8.71,2.36c-18.75.21-37.5,0.1-56.24,0.1H459.9c0,1.26,0,2.31,0,3.37q0,121.74,0,243.48c0,7.22-3.47,12.13-9.86,13.82a15.54,15.54,0,0,1-3.95.4q-178.36,0-356.72.11c-9.12,0-15-6.1-15-15.07q0.19-121.12.07-242.23v-3.87Zm441.65-15.65-248.91-241-248.91,241H516.14Zm-72,261.08V272.47H90.2V517.64h36.08c0-1.22,0-2.28,0-3.34,0-42.33.09-84.65-.08-127A14.06,14.06,0,0,1,140.45,373c23.66,0.19,47.32.06,71,.09a16.59,16.59,0,0,1,4.67.56c6.2,1.85,9.6,6.82,9.61,13.85q0,63.49,0,127v3.19H444.18Zm-234.1-.51V388.77H142V517.21h68.06Z"/><path class="cls-1" d="M332.28,313.73c22.33,0,44.65-.05,67,0,7.15,0,12.39,5.46,13,12.29,0.09,1,.09,2,0.09,3q0,37.74,0,75.48c0,9.59-5.42,15-15,15-43.24,0-86.48-.09-129.72.08-9.1,0-15.06-6.45-15-14.88,0.27-25.66.09-51.32,0.1-77,0-7,3.7-12,10.09-13.69a9.68,9.68,0,0,1,2.46-.33Q298.79,313.72,332.28,313.73Zm64.44,15.63H268.43v74.44H396.72V329.37Z"/></svg>