<svg id="Layer_1" data-name="Layer 1" xmlns="http://www.w3.org/2000/svg" xmlns:xlink="http://www.w3.org/1999/xlink" viewBox="0 0 64 64"><defs><style>.cls-1{fill:none;}.cls-2{clip-path:url(#clip-path);}.cls-3{fill:#dfdfe8;}</style><clipPath id="clip-path"><rect class="cls-1" width="64" height="64"/></clipPath></defs><title>icons-darkblue</title><g class="cls-2"><path class="cls-3" d="M45.78,36.32a4.34,4.34,0,0,0,.07-0.49c0-4,.09-7.95,0-11.92-0.15-4.77-2.58-8.15-6.87-10.15a7,7,0,0,0-6.15-.28,12.06,12.06,0,0,1,6.78,2.83,10.79,10.79,0,0,1,3.71,6.11c1.13,5.81-1.08,10.15-6.22,13.22,2.92,1.17,5.82.35,8.71,0.68m-27.53-.06c2,0,4,0,6.05,0a16.14,16.14,0,0,0,2.51-.48C22,32.68,19.59,28.52,20.64,23s4.94-8.72,10.6-9.63a8.85,8.85,0,0,0-2.41-.46c-5.12.09-10.27,4.81-10.54,9.93-0.24,4.38-.11,8.77-0.14,13.16a1.41,1.41,0,0,0,.1.29M32,15.59a9.52,9.52,0,1,0,9.5,9.59A9.6,9.6,0,0,0,32,15.59m0,46.33a29.86,29.86,0,0,0,15.54-4.37,1.18,1.18,0,0,0,.73-1.09,20.56,20.56,0,0,0-4.67-13.93c-5-6.05-13.4-7.49-19.73-3.15-6,4.13-8.37,10.13-8.18,17.26a1.41,1.41,0,0,0,.68.9,29.68,29.68,0,0,0,15.62,4.38M21.51,38.51a0.67,0.67,0,0,0-.2-0.14l-3,0c-1.67,0-2.2-.53-2.21-2.16,0-4,0-7.95,0-11.92a12.84,12.84,0,0,1,5.29-10.65c3.07-2.32,6.46-3.6,10.39-2.29a1.26,1.26,0,0,0,.78,0c2.91-1.07,5.63-.39,8.19,1a13.11,13.11,0,0,1,7.22,11.91C48,28.11,48,32,48,35.88c0,2-.46,2.46-2.46,2.46H42.32c5.46,4.58,7.87,10.32,8.11,17.11a29.85,29.85,0,0,0-20.6-53.3,29.79,29.79,0,0,0-27.36,25A29.33,29.33,0,0,0,4.12,42.85a29.78,29.78,0,0,0,9.47,12.72,24,24,0,0,1,2.08-9.47,21,21,0,0,1,5.84-7.58M0,31.89A32,32,0,1,1,31.23,64,31.87,31.87,0,0,1,0,31.89"/></g></svg>