<svg id="Layer_1" data-name="Layer 1" xmlns="http://www.w3.org/2000/svg" viewBox="0 0 554.18 554.01"><defs><style>.cls-1{fill:#234780;}</style></defs><title>icons-darkblue-</title><path class="cls-1" d="M155.7,48.65c0-3.5,0-6.65,0-9.8,0-9.71,6.63-16.37,16.29-16.38q34.12,0,68.25,0a3.59,3.59,0,0,0,3.63-2.15c7.57-13,19-20,34.05-19.79,14.83,0.2,26,7.27,33.25,20.27,0.82,1.48,1.75,1.65,3.16,1.64q34.12,0,68.25,0c9.89,0,16.41,6.46,16.53,16.41,0,3.15,0,6.3,0,9.77H538c8.1,0,13.93,4,15.83,11.11a26.1,26.1,0,0,1,.63,6.68q0,218.49,0,437c0,11.58,0,23.17,0,34.75,0,8.45-4.1,14.07-11.56,16a18,18,0,0,1-4.45.43q-260.48,0-521,0C8.77,554.59,3.15,551,1.09,544a20.26,20.26,0,0,1-.76-5.66q0-236.61,0-473.22c0-10.21,6.27-16.46,16.56-16.47q67.5,0,135,0h3.84ZM399.11,64.3c0,1.14,0,2,0,3,0,7.17.06,14.33,0,21.5C399,98.36,392.5,105,383.19,105q-105.87,0-211.74,0c-9,0-15.71-6.8-15.75-15.87,0-7.33,0-14.67,0-22,0-.89,0-1.79,0-2.8H16V538.93H538.79V64.3H399.11ZM171.38,38.07V89.29H383.48V38.18H315.81c0,22.06-16.92,37.73-35.56,38.94a37.36,37.36,0,0,1-25.6-7.36C244.17,61.9,239.17,51.16,239,38.07H171.38ZM300.2,38.92a22.82,22.82,0,1,0-22.85,22.83A22.77,22.77,0,0,0,300.2,38.92Z"/><path class="cls-1" d="M277.2,345.17H114.46c-5.06,0-7.72-1.66-8.94-5.55a7.57,7.57,0,0,1,5.74-9.7,15.64,15.64,0,0,1,3-.24H440.47c5,0,7.83,1.91,8.93,5.94a7.66,7.66,0,0,1-6.21,9.41,28.35,28.35,0,0,1-3.74.14H277.2Z"/><path class="cls-1" d="M277.47,387.38h161c1.17,0,2.33,0,3.5.06a7.74,7.74,0,0,1,7.72,7.32c0.26,3.82-2.92,7.51-7,8.05a17.18,17.18,0,0,1-2.25.07h-326c-5,0-7.81-1.76-8.93-5.57a7.62,7.62,0,0,1,7-9.89c1.58-.08,3.17,0,4.75,0H277.47Z"/><path class="cls-1" d="M277.7,172.14H114.46c-4.89,0-7.48-1.5-8.79-5.05a7.62,7.62,0,0,1,5.6-10.19,14.87,14.87,0,0,1,3-.25H440.48c4.89,0,7.68,1.83,8.83,5.72a7.54,7.54,0,0,1-6.87,9.69c-1.41.06-2.83,0.09-4.24,0.09H277.7Z"/><path class="cls-1" d="M277.47,214.39H438.71c1.17,0,2.33,0,3.5,0a7.66,7.66,0,0,1,1.68,15.08,15.57,15.57,0,0,1-3.7.44q-162.74,0-325.48,0c-6,0-9.64-3.09-9.52-8.13a7.6,7.6,0,0,1,7-7.41c0.91-.06,1.83,0,2.75,0H277.47Z"/><path class="cls-1" d="M277.17,287.49H113.71c-4.87,0-8.29-2.91-8.52-7.21a7.77,7.77,0,0,1,7.23-8.28c0.66-.06,1.33,0,2,0H440.34c5.34,0,7.86,1.78,9,6.31a7.47,7.47,0,0,1-6.66,9.18c-1.08.08-2.17,0-3.25,0H277.17Z"/><path class="cls-1" d="M277.48,460.5H113.78c-4.7,0-8-2.61-8.57-6.64a7.85,7.85,0,0,1,7.17-8.85c0.58-.06,1.17,0,1.75,0h326.4c3.31,0,6.26.77,8,3.91a7.68,7.68,0,0,1-6.63,11.58c-6.58.07-13.16,0-19.74,0H277.48Z"/></svg>